# xmcd
#
# Track frame offsets: 
#        150
#        14863
#        31828
#        46705
#        67563
#        92258
#        109595
#        131205
#        160580
#        177033
#        193858
#        209258
#        225643
#        261027
#
# Disc length: 3729 seconds
#
# Revision: 1
# Processed by: cddbd v1.5.1PL2 Copyright (c) Steve Scherf et al.
# Submitted via: ExactAudioCopy v0.95b2
#
DISCID=aa0e8f0e
DTITLE=Eric Clapton - Unplugged
DYEAR=1992
DGENRE=Blues
TTITLE0=Signe
TTITLE1=Before You Accuse Me
TTITLE2=Hey Hey
TTITLE3=Tears in Heaven
TTITLE4=Lonely Stranger
TTITLE5=Nobody Knows You When You're Down and Out
TTITLE6=Layla
TTITLE7=Running on Faith
TTITLE8=Walkin' Blues
TTITLE9=Alberta
TTITLE10=San Francisco Bay Blues
TTITLE11=Malted Milk
TTITLE12=Old Love
TTITLE13=Rollin' and Tumblin'
EXTD=
EXTT0=
EXTT1=
EXTT2=
EXTT3=
EXTT4=
EXTT5=
EXTT6=
EXTT7=
EXTT8=
EXTT9=
EXTT10=
EXTT11=
EXTT12=
EXTT13=
PLAYORDER=
